# xmcd
#
# Track frame offsets:
#	150
#	18592
#	34225
#	45317
#	60395
#	76535
#	94142
#	112360
#	129472
#	143787
#	161960
#
# Disc length: 2445
#
# Revision: 1
# Processed by: cddbd v1.5.1PL0 Copyright (c) Steve Scherf et al.
# Submitted via: VisiTrax 2.9.5.180 - For more info visit www.synapsa.com
# Normalized: r0:DSETVAR1
#
DISCID=8e098b0b
DTITLE=Various Artist - CDX 98 December 1994
DYEAR=1994
DGENRE=
TTITLE0=Little Texas - Amy's back in Austin
TTITLE1=Neal McCoy - For a change
TTITLE2=Tracy Byrd - The first step
TTITLE3=Boy Howdy - True to his word
TTITLE4=Tractors - Tryin' to get to New Orleans
TTITLE5=Clint Black - Wherever you go
TTITLE6=Shania Twian - Whose bed have you boots been under
TTITLE7=Scott Hoyt - Lay your love on me
TTITLE8=Bryan White - Look at me now
TTITLE9=Mark Chesnutt - Goin' through the big D (dance mix)
TTITLE10=Mark Chesnutt - Goin' through the big D ( beat mix)
EXTD=
EXTT0=
EXTT1=
EXTT2=
EXTT3=
EXTT4=
EXTT5=
EXTT6=
EXTT7=
EXTT8=
EXTT9=
EXTT10=
PLAYORDER=
